<svg id='Rap_24' width='24' height='24' viewBox='0 0 24 24' xmlns='http://www.w3.org/2000/svg' xmlns:xlink='http://www.w3.org/1999/xlink'><rect width='24' height='24' stroke='none' fill='#000000' opacity='0'/>


<g transform="matrix(0.74 0 0 0.74 12 12)" >
<path style="stroke: none; stroke-width: 1; stroke-dasharray: none; stroke-linecap: butt; stroke-dashoffset: 0; stroke-linejoin: miter; stroke-miterlimit: 4; fill: rgb(0,0,0); fill-rule: nonzero; opacity: 1;" transform=" translate(-17, -14.51)" d="M 15 1 C 7.0540249 1 4.0442419 1.9964975 4.0039062 11.808594 C 3.982085900498011 11.923996932477039 3.9807636321310675 12.042341339189068 4 12.158203 L 4 17 L 4 18 C 4 19.516667 4.6641977 20.596554 5.3417969 21.189453 C 5.7549533 21.550965 5.9278894 21.556643 6.2050781 21.666016 C 6.5637828 22.593012 8.8392101 27.854127 14.775391 27.988281 C 14.921316062891085 28.021451488932275 15.072824937108916 28.021451488932275 15.21875 27.988281 C 21.159387 27.857533 23.436097 22.593323 23.794922 21.666016 C 24.072111 21.556643 24.245047 21.550965 24.658203 21.189453 C 25.335802 20.596554 26 19.516667 26 18 L 26 16 L 26 13 L 29 13 C 29.360635916577568 13.005100289545485 29.696081364571608 12.815624703830668 29.877887721486516 12.504127150285669 C 30.059694078401428 12.192629596740671 30.059694078401428 11.80737040325933 29.877887721486516 11.495872849714331 C 29.696081364571608 11.184375296169332 29.360635916577568 10.994899710454515 29 11 L 25.980469 11 C 25.77385 1.9558539 22.717753 1 15 1 z M 9 8 L 15 8 C 15.552 8 16 8.448 16 9 C 16 9.552 15.552 10 15 10 L 9 10 C 8.448 10 8 9.552 8 9 C 8 8.448 8.448 8 9 8 z M 7 13 L 23 13 L 23 17 L 24 17 L 24 18 C 24 18.983333 23.664198 19.403446 23.341797 19.685547 C 23.019396 19.967648 22.757812 20.029297 22.757812 20.029297 L 22.224609 20.162109 L 22.050781 20.683594 C 22.050781 20.683594 21.399244 22.683683 19.667969 24.230469 L 19.580078 23.916016 C 19.094965 22.196189 17.515472 21 15.728516 21 L 14.271484 21 C 12.484528 21 10.90595 22.195154 10.421875 23.916016 L 10.333984 24.230469 C 8.6019024 22.683551 7.9492188 20.683594 7.9492188 20.683594 L 7.7753906 20.162109 L 7.2421875 20.029297 C 7.2421875 20.029297 6.9806039 19.967647 6.6582031 19.685547 C 6.3358023 19.403446 6 18.983333 6 18 L 6 17 L 7 17 L 7 13 z M 9 15 C 8.448 15 8 15.448 8 16 L 8 17 C 8 18.657 9.343 20 11 20 L 12 20 C 13.105 20 14 19.105 14 18 L 14 16 C 14 15.448 13.552 15 13 15 L 9 15 z M 17 15 C 16.448 15 16 15.448 16 16 L 16 18 C 16 19.105 16.895 20 18 20 L 19 20 C 20.657 20 22 18.657 22 17 L 22 16 C 22 15.448 21.552 15 21 15 L 17 15 z M 14.271484 23 L 15.728516 23 C 16.629559 23 17.40941 23.590811 17.654297 24.458984 L 17.912109 25.376953 C 17.342909 25.637027 16.713048 25.836411 16 25.931641 L 16 25 C 16.0037014610102 24.729699667173673 15.89782332475401 24.46941334607979 15.706490332869745 24.27844827870817 C 15.51515734098548 24.087483211336544 15.254667707530459 23.98210627103109 14.984375 23.986328 C 14.43285880343316 23.994949073062962 13.992447279873389 24.448468138368238 14 25 L 14 25.931641 C 13.286952 25.836411 12.657091 25.637027 12.087891 25.376953 L 12.345703 24.458984 C 12.345703635638088 24.45833300015516 12.345703635638088 24.45768199984484 12.345703 24.457031 C 12.589628 23.58994 13.370441 23 14.271484 23 z" stroke-linecap="round" />
</g>
</svg>
